Coordinates
version=1
nRows=16
nColumns=36
inDegrees=yes

Units are S.I. units (second, meters, Newtons, ...)
If the header above contains a line with 'inDegrees', this indicates whether rotational values are in degrees (yes) or radians (no).

endheader
time	pelvis_tilt	pelvis_list	pelvis_rotation	pelvis_tx	pelvis_ty	pelvis_tz	hip_flexion_r	hip_adduction_r	hip_rotation_r	knee_angle_r	knee_angle_r_beta	ankle_angle_r	subtalar_angle_r	mtp_angle_r	hip_flexion_l	hip_adduction_l	hip_rotation_l	knee_angle_l	knee_angle_l_beta	ankle_angle_l	subtalar_angle_l	mtp_angle_l	lumbar_extension	lumbar_bending	lumbar_rotation	arm_flex_r	arm_add_r	arm_rot_r	elbow_flex_r	pro_sup_r	arm_flex_l	arm_add_l	arm_rot_l	elbow_flex_l	pro_sup_l
      4.40000000	     -7.34882495	      0.06739438	      8.59638575	      1.31953635	      1.04529769	     -0.10880442	     22.54773488	    -14.90715076	    -19.48902986	     39.73348582	      0.69348015	     22.95648762	     -5.26581212	     -7.49999987	     22.23802982	     -5.13136087	     -7.80374151	     35.96335575	      0.62767897	     25.70491776	     -4.85079234	     -7.49999987	     -5.15724547	     -0.84054855	     -3.24730705	      5.72355721	    -14.25846518	     10.34543821	     23.83632754	     99.80913746	      5.18331467	    -16.76647348	     25.08977759	     21.98838713	     91.08359524
      4.41666670	     -7.93836375	     -0.16460630	      8.35416816	      1.31557379	      1.04484207	     -0.10124862	     22.07907682	    -14.13178467	    -19.39464123	     37.49405204	      0.65439466	     22.23625018	     -5.24636017	     -7.49999987	     21.80603530	     -5.23634415	     -8.29181558	     33.71461657	      0.58843107	     24.78292771	     -4.39698905	     -7.49999987	     -3.90820716	     -0.66422494	     -3.56715613	      5.41021303	    -14.23023459	     10.36876668	     23.48448584	     99.83125405	      5.71468747	    -16.91998290	     25.29556245	     22.47188920	     91.05222058
      4.43333330	     -7.74925147	     -0.37142485	      7.98736059	      1.31037678	      1.05144062	     -0.09826692	     20.47674857	    -12.88923550	    -18.91267171	     34.28225820	      0.59833828	     20.38283391	     -6.63432843	     -7.49999987	     20.17420658	     -5.47072327	     -9.00310135	     30.71753630	      0.53612215	     23.46732974	     -3.97706733	     -7.49999987	     -3.84477510	     -0.35952702	     -3.74521178	      5.78209951	    -14.11106451	     10.44316172	     22.46385239	     99.75912662	      6.61610754	    -17.48746379	     26.47595398	     23.63248338	     90.88715966
      4.45000000	     -7.73673706	     -0.47637520	      7.61383325	      1.31223029	      1.06024687	     -0.09799783	     19.00022661	    -11.82454639	    -18.36346705	     31.00169194	      0.54108160	     18.65165610	     -7.58871222	     -7.49999987	     18.47231607	     -5.51968032	     -9.87993091	     27.37226546	      0.47773616	     21.91393774	     -3.46209090	     -7.49999987	     -3.25244039	     -0.25672963	     -3.96431072	      5.86003319	    -14.08518318	     10.72146302	     21.87445703	     99.49906014	      7.24861172	    -18.11938378	     27.94183723	     24.81905134	     90.48587132
      4.46666670	     -7.69875600	     -0.53563771	      7.23912721	      1.31263131	      1.06507732	     -0.09803118	     17.58340276	    -10.87519416	    -17.74475227	     27.87257388	      0.48646819	     16.79830022	     -8.58824726	     -7.49999987	     16.83024187	     -5.45952346	    -10.63965757	     24.22016811	      0.42272168	     20.46701058	     -2.96285702	     -7.49999987	     -2.67138364	     -0.23228801	     -4.05640097	      5.83534050	    -14.17903112	     11.40829529	     21.52921544	     97.80436389	      7.94536447	    -18.77709433	     29.62407824	     26.05351347	     89.76288208
      4.48333330	     -7.54799986	     -0.47838903	      6.85043242	      1.31425488	      1.07215700	     -0.09799315	     15.97577130	    -10.07325285	    -17.03714906	     24.60268724	      0.42939790	     14.84714670	     -9.73583497	     -7.49999987	     14.69620256	     -5.19641482	    -11.51896162	     20.53622479	      0.35842474	     18.98161443	     -2.24693515	     -7.49999987	     -1.86803772	     -0.39758479	     -3.97058695	      5.61094081	    -14.49090922	     13.62948438	     21.44282595	     94.90941419	      9.01723384	    -20.05934874	     36.49259003	     27.34948311	     80.20902442
      4.50000000	     -7.44624834	     -0.42126295	      6.54720735	      1.30956234	      1.07197364	     -0.09552397	     14.42286059	     -9.29529232	    -16.33517494	     21.36634052	      0.37291299	     13.15213663	    -10.67255425	     -7.49999987	     12.94013083	     -4.89640302	    -12.15002150	     17.31135808	      0.30214020	     17.53027660	     -1.85500539	     -7.49999987	     -1.25569839	     -0.56230050	     -4.05075110	      5.56683166	    -14.59659746	     14.11944198	     21.42651999	     95.00001857	      9.44663900	    -20.81215092	     37.11305597	     28.69104858	     80.17586831
      4.51666670	     -7.16452074	     -0.42277306	      6.23986899	      1.32159549	      1.07740735	     -0.10051065	     12.34788343	     -8.53406768	    -15.96183301	     17.76895640	      0.31012679	     11.57183889	    -11.19231680	     -7.49999987	     10.46817184	     -4.56725282	    -12.83172629	     13.51118285	      0.23581463	     16.21749297	     -1.12564335	     -7.49999987	     -0.37250826	     -0.56135588	     -4.05946220	      5.30821753	    -14.70519789	     14.69885583	     21.24845834	     95.01379352	      9.47259598	    -21.23084487	     37.88716748	     29.67629134	     80.08015732
      4.53333330	     -6.92878138	     -0.38738385	      6.04555366	      1.32611844	      1.07569807	     -0.09839113	     10.57190149	     -7.91472849	    -15.36989941	     14.76314076	      0.25766541	     10.30813246	    -11.93019286	     -7.49999987	      8.40643203	     -4.23555132	    -13.31603677	     10.46628851	      0.18267119	     15.31850544	     -0.54713372	     -7.49999987	      0.54412323	     -0.64802411	     -4.05112744	      4.75896863	    -15.13807039	     18.09646068	     21.15814567	     91.99051878	      9.69423347	    -22.16532223	     41.84862877	     30.89155199	     74.97527920
      4.55000000	     -6.76206794	     -0.36423380	      5.80560403	      1.32200992	      1.07649509	     -0.09554232	      9.15394914	     -7.39479020	    -15.04567518	     12.22060211	      0.21328974	      9.29489023	    -12.33994389	     -7.49999987	      6.76882477	     -3.99289026	    -13.59732405	      8.01158290	      0.13982850	     14.67933194	     -0.25914793	     -7.49999987	      1.33829571	     -0.75199436	     -3.96803717	      4.32386907	    -15.27749248	     18.77378354	     21.21388291	     92.08045191	      9.58988650	    -22.70277843	     42.38228215	     31.87952877	     74.98877873
      4.56666670	     -6.90133144	     -0.34023855	      5.62956387	      1.31641601	      1.07009072	     -0.09279627	      8.38094737	     -6.97208018	    -14.67905984	     10.16068999	      0.17733749	      8.23627011	    -13.06539937	     -7.49999987	      5.84056513	     -3.76108647	    -13.84521038	      6.06280793	      0.10581596	     14.13830273	     -0.18457235	     -7.49999987	      2.26994553	     -0.89605801	     -3.92885770	      3.98148664	    -15.55977727	     20.97246143	     21.58988630	     91.48514474	      9.54707996	    -23.50269088	     43.67679538	     33.26485688	     74.38620984
      4.58333330	     -6.90404895	     -0.37317276	      5.46290938	      1.31745518	      1.07134040	     -0.09257059	      7.51336379	     -6.55219324	    -14.65312516	      8.24766360	      0.14394889	      7.56053624	    -13.22215174	     -7.49999987	      4.90958867	     -3.63397815	    -14.10216577	      4.37540099	      0.07636515	     13.81489661	     -0.01878147	     -7.49999987	      2.81831826	     -0.95280930	     -3.75920551	      3.52489281	    -15.71942832	     21.97291031	     22.12007412	     89.52672519	      9.64478671	    -23.77696450	     43.87968052	     34.14871479	     73.13422516
      4.60000000	     -6.85711894	     -0.40694310	      5.33577112	      1.32175987	      1.07413681	     -0.09546904	      6.67566241	     -6.23538419	    -14.48873907	      6.62147072	      0.11556647	      6.95656529	    -13.47477700	     -7.49999987	      3.99911434	     -3.49460265	    -14.04872675	      2.86708187	      0.05004002	     13.41864933	     -0.20199824	     -7.49999987	      3.28531244	     -0.94561527	     -3.75978689	      3.42044718	    -15.92302221	     23.72938355	     22.35513356	     89.62218252	      9.71716369	    -24.04664361	     44.65840320	     34.99161644	     73.20814894
      4.61666670	     -6.94800996	     -0.38470967	      5.25611762	      1.32240146	      1.06773475	     -0.09485107	      6.17535472	     -6.06536419	    -14.30254167	      5.45509331	      0.09520934	      6.72036165	    -13.55713047	     -7.49999987	      3.50290519	     -3.35908355	    -14.37430799	      1.86891537	      0.03261873	     13.32273023	      0.18539984	     -7.49999987	      3.79713705	     -1.02624895	     -3.73218478	      3.22016228	    -16.15937326	     25.60114877	     22.89903158	     88.50560450	      9.77615106	    -24.29293693	     45.10122195	     35.79441676	     72.79455709
      4.63333330	     -7.03880504	     -0.36461189	      5.19616919	      1.32094092	      1.06481848	     -0.09467557	      5.83047322	     -5.98085773	    -14.26625494	      4.56887966	      0.07974199	      6.71220451	    -13.37742239	     -7.49999987	      3.18673172	     -3.25416227	    -14.55811458	      1.16585046	      0.02034793	     13.24031337	      0.20161283	     -7.49999987	      4.19144021	     -1.07662193	     -3.78485251	      3.44134632	    -16.23305226	     28.03301777	     22.68695417	     84.68845251	     10.04182526	    -24.09153730	     45.42349336	     35.70881303	     70.97263151
      4.65000000	     -7.02486784	     -0.35360390	      5.20196775	      1.31625538	      1.06959873	     -0.09136542	      5.51081805	     -5.87004446	    -14.27710062	      3.88251391	      0.06776265	      6.67505413	    -13.40254402	     -7.49999987	      3.03981076	     -3.26911933	    -14.73520083	      0.90177337	      0.01573891	     13.19592068	      0.20343278	     -7.49999987	      4.16337140	     -1.09649367	     -4.32250588	      4.17905669	    -16.29160146	     30.98785049	     22.62104899	     84.25166640	      9.86046020	    -23.99700785	     44.06030759	     35.88092655	     72.72886140
